<svg xmlns="http://www.w3.org/2000/svg" xmlns:xlink="http://www.w3.org/1999/xlink" width="1080" zoomAndPan="magnify" viewBox="0 0 810 809.999993" height="1080" preserveAspectRatio="xMidYMid meet" version="1.2"><defs><clipPath id="ce5032acfe"><path d="M 109.039062 182.25 L 453.289062 182.25 L 453.289062 526.5 L 109.039062 526.5 Z M 109.039062 182.25 "/></clipPath></defs><g id="669a71a4a2"><g clip-rule="nonzero" clip-path="url(#ce5032acfe)"><path style="fill:none;stroke-width:22;stroke-linecap:butt;stroke-linejoin:miter;stroke:#000000;stroke-opacity:1;stroke-miterlimit:4;" d="M 0.000811314 -0.0000144417 L 459.000834 -0.0000144417 L 459.000834 459.000009 L 0.000811314 459.000009 Z M 0.000811314 -0.0000144417 " transform="matrix(0.75,0,0,0.75,109.038454,182.250011)"/></g><path style="fill:none;stroke-width:11;stroke-linecap:butt;stroke-linejoin:miter;stroke:#000000;stroke-opacity:1;stroke-miterlimit:4;" d="M 4.856881 80.079728 C 57.623934 -19.361574 110.608325 -19.357734 163.803129 80.077617 " transform="matrix(0.571365,0.00364483,-0.00364483,0.571365,131.333229,205.825162)"/><path style="fill:none;stroke-width:11;stroke-linecap:butt;stroke-linejoin:miter;stroke:#000000;stroke-opacity:1;stroke-miterlimit:4;" d="M 4.853538 80.077856 C 57.836827 -19.359813 110.813279 -19.359813 163.796568 80.077856 " transform="matrix(-0.571377,0,0,-0.571377,317.984138,297.453871)"/><path style="fill:none;stroke-width:11;stroke-linecap:butt;stroke-linejoin:miter;stroke:#000000;stroke-opacity:1;stroke-miterlimit:4;" d="M 0.000856236 5.499435 L 156.745548 5.499435 " transform="matrix(1.252161,0,0,1.252161,224.510647,436.512262)"/><path style="fill:none;stroke-width:11;stroke-linecap:butt;stroke-linejoin:miter;stroke:#000000;stroke-opacity:1;stroke-miterlimit:4;" d="M -0.000565796 5.501328 L 41.845853 5.501328 " transform="matrix(1.252161,0,0,1.252161,368.383521,480.455204)"/><path style="fill:none;stroke-width:11;stroke-linecap:butt;stroke-linejoin:miter;stroke:#000000;stroke-opacity:1;stroke-miterlimit:4;" d="M 0.000219477 5.501328 L 41.565873 5.501328 " transform="matrix(1.252161,0.000000000000002569,-0.000000000000002569,1.252161,296.57785,480.455204)"/><path style="fill:none;stroke-width:11;stroke-linecap:butt;stroke-linejoin:miter;stroke:#000000;stroke-opacity:1;stroke-miterlimit:4;" d="M 0.000856236 5.501328 L 41.775524 5.501328 " transform="matrix(1.252161,-0.000000000000002485,0.000000000000002485,1.252161,224.510647,480.455204)"/><path style="fill:none;stroke-width:11;stroke-linecap:butt;stroke-linejoin:miter;stroke:#000000;stroke-opacity:1;stroke-miterlimit:4;" d="M -0.00242443 5.50097 L 628.296494 5.497286 " transform="matrix(0.530093,-0.530093,0.530093,0.530093,111.632136,518.067066)"/></g></svg>