<svg xmlns="http://www.w3.org/2000/svg" xmlns:xlink="http://www.w3.org/1999/xlink" width="1080" zoomAndPan="magnify" viewBox="0 0 810 809.999993" height="1080" preserveAspectRatio="xMidYMid meet" version="1.2"><defs><clipPath id="aecd1ab860"><path d="M 109.039062 182.25 L 453.289062 182.25 L 453.289062 526.5 L 109.039062 526.5 Z M 109.039062 182.25 "/></clipPath></defs><g id="1420ed0596"><g clip-rule="nonzero" clip-path="url(#aecd1ab860)"><path style="fill:none;stroke-width:22;stroke-linecap:butt;stroke-linejoin:miter;stroke:#000000;stroke-opacity:1;stroke-miterlimit:4;" d="M 0.000811314 -0.0000144417 L 459.000834 -0.0000144417 L 459.000834 459.000009 L 0.000811314 459.000009 Z M 0.000811314 -0.0000144417 " transform="matrix(0.75,0,0,0.75,109.038454,182.250011)"/></g><path style="fill:none;stroke-width:11;stroke-linecap:butt;stroke-linejoin:miter;stroke:#000000;stroke-opacity:1;stroke-miterlimit:4;" d="M 0.000856236 5.499396 L 156.745548 5.499396 " transform="matrix(1.252161,0,0,1.252161,224.510647,436.51231)"/><path style="fill:none;stroke-width:11;stroke-linecap:butt;stroke-linejoin:miter;stroke:#000000;stroke-opacity:1;stroke-miterlimit:4;" d="M -0.000565796 5.501366 L 41.845853 5.501366 " transform="matrix(1.252161,0,0,1.252161,368.383521,480.455156)"/><path style="fill:none;stroke-width:11;stroke-linecap:butt;stroke-linejoin:miter;stroke:#000000;stroke-opacity:1;stroke-miterlimit:4;" d="M 0.000219477 5.501366 L 41.565873 5.501366 " transform="matrix(1.252161,0.000000000000002569,-0.000000000000002569,1.252161,296.57785,480.455156)"/><path style="fill:none;stroke-width:11;stroke-linecap:butt;stroke-linejoin:miter;stroke:#000000;stroke-opacity:1;stroke-miterlimit:4;" d="M 0.000856236 5.501366 L 41.775524 5.501366 " transform="matrix(1.252161,-0.000000000000002485,0.000000000000002485,1.252161,224.510647,480.455156)"/><path style="fill:none;stroke-width:11;stroke-linecap:butt;stroke-linejoin:miter;stroke:#000000;stroke-opacity:1;stroke-miterlimit:4;" d="M -0.00242443 5.50097 L 628.296494 5.497286 " transform="matrix(0.530093,-0.530093,0.530093,0.530093,111.632136,518.067066)"/><path style="fill:none;stroke-width:11;stroke-linecap:butt;stroke-linejoin:miter;stroke:#000000;stroke-opacity:1;stroke-miterlimit:4;" d="M -0.00154199 5.500703 L 156.746269 5.500703 " transform="matrix(1.252161,0,0,1.252161,140.626931,215.166924)"/><path style="fill:none;stroke-width:11;stroke-linecap:butt;stroke-linejoin:miter;stroke:#000000;stroke-opacity:1;stroke-miterlimit:4;" d="M 0.000157498 5.499552 L 41.846576 5.499552 " transform="matrix(1.252161,0,0,1.252161,284.499803,259.109772)"/><path style="fill:none;stroke-width:11;stroke-linecap:butt;stroke-linejoin:miter;stroke:#000000;stroke-opacity:1;stroke-miterlimit:4;" d="M 0.000940854 5.499458 L 41.566595 5.499458 " transform="matrix(1.252161,0.000000000000002569,-0.000000000000002569,1.252161,212.694134,259.109889)"/><path style="fill:none;stroke-width:11;stroke-linecap:butt;stroke-linejoin:miter;stroke:#000000;stroke-opacity:1;stroke-miterlimit:4;" d="M -0.00154199 5.499458 L 41.776245 5.499458 " transform="matrix(1.252161,-0.000000000000002485,0.000000000000002485,1.252161,140.626931,259.109889)"/></g></svg>