<svg xmlns="http://www.w3.org/2000/svg" xmlns:xlink="http://www.w3.org/1999/xlink" width="1080" zoomAndPan="magnify" viewBox="0 0 810 809.999993" height="1080" preserveAspectRatio="xMidYMid meet" version="1.2"><defs><clipPath id="32ac86efb0"><path d="M 330.445312 225.539062 L 725.6875 225.539062 L 725.6875 476.789062 L 330.445312 476.789062 Z M 330.445312 225.539062 "/></clipPath><clipPath id="4115634708"><path d="M 413.351562 225.539062 L 642.714844 225.539062 L 725.625 476.789062 L 330.445312 476.789062 Z M 413.351562 225.539062 "/></clipPath><clipPath id="017f10a0ec"><path d="M 449.074219 471.171875 L 607.324219 471.171875 L 607.324219 613.671875 L 449.074219 613.671875 Z M 449.074219 471.171875 "/></clipPath><clipPath id="2bd5252800"><path d="M 509.824219 471.171875 L 546.414062 471.171875 L 607.160156 613.460938 L 449.074219 613.460938 Z M 509.824219 471.171875 "/></clipPath></defs><g id="d32855ed39"><g clip-rule="nonzero" clip-path="url(#32ac86efb0)"><g clip-rule="nonzero" clip-path="url(#4115634708)"><path style="fill:none;stroke-width:22;stroke-linecap:butt;stroke-linejoin:miter;stroke:#000000;stroke-opacity:1;stroke-miterlimit:4;" d="M 110.590549 -0.000324074 L 416.536633 -0.000324074 L 527.129913 335.140302 L 0.00247894 335.140302 Z M 110.590549 -0.000324074 " transform="matrix(0.749685,0,0,0.749685,330.443454,225.539305)"/></g></g><path style="fill:none;stroke-width:9;stroke-linecap:butt;stroke-linejoin:miter;stroke:#000000;stroke-opacity:1;stroke-miterlimit:4;" d="M 0.00140753 4.498976 L 324.296265 4.498787 " transform="matrix(-0.114973,0.740477,-0.740477,-0.114973,497.050298,231.352158)"/><path style="fill:none;stroke-width:9;stroke-linecap:butt;stroke-linejoin:miter;stroke:#000000;stroke-opacity:1;stroke-miterlimit:4;" d="M 0.00198701 4.501525 L 322.627279 4.5008 " transform="matrix(-0.118194,-0.740628,0.740628,-0.118194,595.99831,471.701492)"/><path style="fill:none;stroke-width:9;stroke-linecap:butt;stroke-linejoin:miter;stroke:#000000;stroke-opacity:1;stroke-miterlimit:4;" d="M 0.000230516 4.500357 L 345.760665 4.500357 " transform="matrix(0.75,0,0,0.75,397.281077,283.67942)"/><path style="fill:none;stroke-width:9;stroke-linecap:butt;stroke-linejoin:miter;stroke:#000000;stroke-opacity:1;stroke-miterlimit:4;" d="M 0.0003962 4.502604 L 423.635834 4.502604 " transform="matrix(0.75,0,0,0.75,366.734078,369.38086)"/><g clip-rule="nonzero" clip-path="url(#017f10a0ec)"><g clip-rule="nonzero" clip-path="url(#2bd5252800)"><path style="fill:none;stroke-width:22;stroke-linecap:butt;stroke-linejoin:miter;stroke:#000000;stroke-opacity:1;stroke-miterlimit:4;" d="M 80.998871 0.00171561 L 129.785331 0.00171561 L 210.780127 189.720475 L -0.00113354 189.720475 Z M 80.998871 0.00171561 " transform="matrix(0.75,0,0,0.75,449.075069,471.170588)"/></g></g></g></svg>