<svg xmlns="http://www.w3.org/2000/svg" xmlns:xlink="http://www.w3.org/1999/xlink" width="1080" zoomAndPan="magnify" viewBox="0 0 810 809.999993" height="1080" preserveAspectRatio="xMidYMid meet" version="1.2"><defs><clipPath id="341c4b03d2"><path d="M 0 0 L 809.835938 0 L 809.835938 809.835938 L 0 809.835938 Z M 0 0 "/></clipPath></defs><g id="e6f8018254"><rect x="0" width="810" y="0" height="809.999993" style="fill:#ffffff;fill-opacity:1;stroke:none;"/><rect x="0" width="810" y="0" height="809.999993" style="fill:#ffffff;fill-opacity:1;stroke:none;"/><g clip-rule="nonzero" clip-path="url(#341c4b03d2)"><path style="fill:none;stroke-width:19.152069;stroke-linecap:butt;stroke-linejoin:miter;stroke:#000000;stroke-opacity:1;stroke-miterlimit:4;" d="M -0.00000406337 -0.0000232193 L 940.189617 -0.0000232193 L 940.189617 940.189598 L -0.00000406337 940.189598 Z M -0.00000406337 -0.0000232193 " transform="matrix(0.861354,0,0,0.861354,0.0000035,0.00002)"/></g><path style="fill:none;stroke-width:22;stroke-linecap:butt;stroke-linejoin:miter;stroke:#000000;stroke-opacity:1;stroke-miterlimit:4;" d="M -0.00115559 11.000526 L 1303.986229 10.997319 " transform="matrix(0.609191,-0.609191,0.609191,0.609191,1.275849,795.321316)"/><path style="fill:none;stroke-width:37;stroke-linecap:butt;stroke-linejoin:miter;stroke:#000000;stroke-opacity:1;stroke-miterlimit:4;" d="M -0.0000555804 18.501366 L 536.039796 18.501366 " transform="matrix(0.861475,0,0,0.861475,271.699267,598.530278)"/><path style="fill:none;stroke-width:37;stroke-linecap:butt;stroke-linejoin:miter;stroke:#000000;stroke-opacity:1;stroke-miterlimit:4;" d="M -0.0011389 18.497987 L 143.107437 18.497987 " transform="matrix(0.860961,0,0,0.860961,610.223637,701.925513)"/><path style="fill:none;stroke-width:37;stroke-linecap:butt;stroke-linejoin:miter;stroke:#000000;stroke-opacity:1;stroke-miterlimit:4;" d="M 0.00042519 18.499636 L 142.1493 18.499636 " transform="matrix(0.860673,0.000000000000002753,-0.000000000000002753,0.860673,441.269165,701.925513)"/><path style="fill:none;stroke-width:37;stroke-linecap:butt;stroke-linejoin:miter;stroke:#000000;stroke-opacity:1;stroke-miterlimit:4;" d="M -0.0000555772 18.499471 L 142.86514 18.499471 " transform="matrix(0.861526,-0.000000000000002778,0.000000000000002778,0.861526,271.699267,701.925513)"/><path style="fill:none;stroke-width:17;stroke-linecap:butt;stroke-linejoin:miter;stroke:#000000;stroke-opacity:1;stroke-miterlimit:4;" d="M 7.506488 124.875476 C 89.856065 -30.293496 172.533436 -30.290343 255.538545 124.875866 " transform="matrix(0.861406,0.00549504,-0.00549504,0.861406,52.520845,55.542636)"/><path style="fill:none;stroke-width:17;stroke-linecap:butt;stroke-linejoin:miter;stroke:#000000;stroke-opacity:1;stroke-miterlimit:4;" d="M 7.503439 124.877695 C 90.179111 -30.293369 172.854784 -30.293369 255.530456 124.877695 " transform="matrix(-0.861423,0,0,-0.861423,491.584731,271.006149)"/></g></svg>