<svg xmlns="http://www.w3.org/2000/svg" xmlns:xlink="http://www.w3.org/1999/xlink" width="1080" zoomAndPan="magnify" viewBox="0 0 810 621.000004" height="828" preserveAspectRatio="xMidYMid meet" version="1.2"><defs><clipPath id="28198bcd5a"><path d="M 0.652344 0 L 809.347656 0 L 809.347656 620 L 0.652344 620 Z M 0.652344 0 "/></clipPath><clipPath id="cbc7dca5e2"><path d="M 0.652344 6 L 809.347656 6 L 809.347656 615 L 0.652344 615 Z M 0.652344 6 "/></clipPath><clipPath id="754670cd12"><path d="M -0.257812 618.253906 L 2.097656 -0.996094 L 810.042969 2.078125 L 807.6875 621.328125 Z M -0.257812 618.253906 "/></clipPath><clipPath id="5454dbfddc"><path d="M -0.257812 618.253906 L 2.097656 -0.996094 L 810.042969 2.078125 L 807.6875 621.328125 Z M -0.257812 618.253906 "/></clipPath><clipPath id="e213fa0262"><path d="M -0.257812 618.253906 L 2.097656 -0.996094 L 810.042969 2.078125 L 807.6875 621.328125 Z M -0.257812 618.253906 "/></clipPath></defs><g id="17179e7738"><g clip-rule="nonzero" clip-path="url(#28198bcd5a)"><path style=" stroke:none;fill-rule:nonzero;fill:#ffffff;fill-opacity:1;" d="M 0.652344 0 L 809.347656 0 L 809.347656 620 L 0.652344 620 Z M 0.652344 0 "/><path style=" stroke:none;fill-rule:nonzero;fill:#ffffff;fill-opacity:1;" d="M 0.652344 0 L 809.347656 0 L 809.347656 620 L 0.652344 620 Z M 0.652344 0 "/></g><g clip-rule="nonzero" clip-path="url(#cbc7dca5e2)"><g clip-rule="nonzero" clip-path="url(#754670cd12)"><g clip-rule="nonzero" clip-path="url(#5454dbfddc)"><g clip-rule="nonzero" clip-path="url(#e213fa0262)"><path style=" stroke:none;fill-rule:nonzero;fill:#000000;fill-opacity:1;" d="M 0.730469 359.109375 C 0.570312 401.058594 22.957031 434.933594 50.9375 435.039062 L 76.171875 435.136719 L 75.882812 510.871094 C 75.695312 560.597656 126.777344 612.03125 176.492188 612.21875 L 706.71875 614.238281 C 756.460938 614.425781 807.90625 563.359375 808.09375 513.660156 L 809.632812 109.800781 C 809.820312 60.074219 758.738281 8.644531 709.023438 8.453125 L 178.796875 6.4375 C 129.054688 6.246094 77.609375 57.316406 77.421875 107.015625 L 77.132812 182.753906 L 51.898438 182.65625 C 23.941406 182.550781 1.273438 216.226562 1.113281 258.199219 L 0.730469 359.164062 Z M 176.902344 511.230469 L 178.441406 107.375 L 708.667969 109.390625 L 707.128906 513.246094 Z M 228.140625 309.492188 L 404.867188 310.164062 L 404.386719 436.382812 L 657.347656 311.125 L 480.625 310.453125 L 481.105469 184.234375 Z M 228.140625 309.492188 "/></g></g></g></g></g></svg>