<svg xmlns="http://www.w3.org/2000/svg" xmlns:xlink="http://www.w3.org/1999/xlink" width="1080" zoomAndPan="magnify" viewBox="0 0 810 621.000004" height="828" preserveAspectRatio="xMidYMid meet" version="1.2"><defs><clipPath id="efa315e9e7"><path d="M 0.652344 0 L 809.347656 0 L 809.347656 620 L 0.652344 620 Z M 0.652344 0 "/></clipPath><clipPath id="729591d8c0"><path d="M 0.652344 6 L 809.347656 6 L 809.347656 614 L 0.652344 614 Z M 0.652344 6 "/></clipPath></defs><g id="31715a62a4"><g clip-rule="nonzero" clip-path="url(#efa315e9e7)"><path style=" stroke:none;fill-rule:nonzero;fill:#ffffff;fill-opacity:1;" d="M 0.652344 0 L 809.347656 0 L 809.347656 620 L 0.652344 620 Z M 0.652344 0 "/><path style=" stroke:none;fill-rule:nonzero;fill:#ffffff;fill-opacity:1;" d="M 0.652344 0 L 809.347656 0 L 809.347656 620 L 0.652344 620 Z M 0.652344 0 "/></g><g clip-rule="nonzero" clip-path="url(#729591d8c0)"><path style=" stroke:none;fill-rule:nonzero;fill:#000000;fill-opacity:1;" d="M 809.347656 259.457031 C 809.347656 217.457031 786.8125 183.628906 758.804688 183.628906 L 733.546875 183.628906 L 733.546875 107.800781 C 733.546875 58.011719 682.222656 6.710938 632.460938 6.710938 L 101.738281 6.710938 C 51.949219 6.710938 0.652344 58.039062 0.652344 107.800781 L 0.652344 512.148438 C 0.652344 561.9375 51.976562 613.234375 101.738281 613.234375 L 632.460938 613.234375 C 682.25 613.234375 733.546875 561.910156 733.546875 512.148438 L 733.546875 436.320312 L 758.804688 436.320312 C 786.785156 436.320312 809.347656 402.515625 809.347656 360.492188 L 809.347656 259.402344 Z M 632.433594 107.828125 L 632.433594 512.175781 L 101.710938 512.175781 L 101.710938 107.828125 Z M 581.917969 310 L 405.027344 310 L 405.027344 183.628906 L 152.308594 310 L 329.199219 310 L 329.199219 436.375 Z M 581.917969 310 "/></g></g></svg>