<svg xmlns="http://www.w3.org/2000/svg" xmlns:xlink="http://www.w3.org/1999/xlink" width="1080" zoomAndPan="magnify" viewBox="0 0 810 809.999993" height="1080" preserveAspectRatio="xMidYMid meet" version="1.2"><g id="21704e8798"><rect x="0" width="810" y="0" height="809.999993" style="fill:#ffffff;fill-opacity:1;stroke:none;"/><rect x="0" width="810" y="0" height="809.999993" style="fill:#ffffff;fill-opacity:1;stroke:none;"/><path style="fill:none;stroke-width:22;stroke-linecap:butt;stroke-linejoin:miter;stroke:#000000;stroke-opacity:1;stroke-miterlimit:4;" d="M -0.00000466667 -0.0000266667 L 1080.00005 -0.0000266667 L 1080.00005 1080.000028 L -0.00000466667 1080.000028 Z M -0.00000466667 -0.0000266667 " transform="matrix(0.75,0,0,0.75,0.0000035,0.00002)"/><path style="fill:none;stroke-width:43;stroke-linecap:butt;stroke-linejoin:miter;stroke:#000000;stroke-opacity:1;stroke-miterlimit:4;" d="M -0.0000638416 21.500289 L 615.749967 21.500289 " transform="matrix(0.75,0,0,0.75,271.699267,598.343534)"/><path style="fill:none;stroke-width:43;stroke-linecap:butt;stroke-linejoin:miter;stroke:#000000;stroke-opacity:1;stroke-miterlimit:4;" d="M -0.00131039 21.501593 L 164.384134 21.501593 " transform="matrix(0.748289,0,0,0.748289,610.223637,701.738721)"/><path style="fill:none;stroke-width:43;stroke-linecap:butt;stroke-linejoin:miter;stroke:#000000;stroke-opacity:1;stroke-miterlimit:4;" d="M 0.000488775 21.49999 L 163.286966 21.49999 " transform="matrix(0.748708,0.000000000000000521,-0.000000000000000521,0.748708,441.269165,701.738721)"/><path style="fill:none;stroke-width:43;stroke-linecap:butt;stroke-linejoin:miter;stroke:#000000;stroke-opacity:1;stroke-miterlimit:4;" d="M -0.0000638842 21.498119 L 164.109323 21.498119 " transform="matrix(0.7495,-0.000000000000000558,0.000000000000000558,0.7495,271.699267,701.738721)"/><path style="fill:none;stroke-width:27;stroke-linecap:butt;stroke-linejoin:miter;stroke:#000000;stroke-opacity:1;stroke-miterlimit:4;" d="M 0.00110712 13.501513 L 1499.67154 13.501513 " transform="matrix(0.53033,-0.53033,0.53033,0.53033,-0.434283,796.10986)"/><path style="fill:none;stroke-width:43;stroke-linecap:butt;stroke-linejoin:miter;stroke:#000000;stroke-opacity:1;stroke-miterlimit:4;" d="M -0.00211655 21.500311 L 615.753123 21.500311 " transform="matrix(0.75,0,0,0.75,74.325806,77.531018)"/><path style="fill:none;stroke-width:43;stroke-linecap:butt;stroke-linejoin:miter;stroke:#000000;stroke-opacity:1;stroke-miterlimit:4;" d="M 0.00176906 21.501656 L 164.387214 21.501656 " transform="matrix(0.748289,0,0,0.748289,412.850239,180.926173)"/><path style="fill:none;stroke-width:43;stroke-linecap:butt;stroke-linejoin:miter;stroke:#000000;stroke-opacity:1;stroke-miterlimit:4;" d="M -0.0015803 21.500054 L 163.290114 21.500054 " transform="matrix(0.748708,0.000000000000002085,-0.000000000000002085,0.748708,243.895714,180.926173)"/><path style="fill:none;stroke-width:43;stroke-linecap:butt;stroke-linejoin:miter;stroke:#000000;stroke-opacity:1;stroke-miterlimit:4;" d="M -0.00211796 21.498182 L 164.107269 21.498182 " transform="matrix(0.7495,-0.000000000000002045,0.000000000000002045,0.7495,74.325806,180.926173)"/></g></svg>