<svg xmlns="http://www.w3.org/2000/svg" xmlns:xlink="http://www.w3.org/1999/xlink" width="1080" zoomAndPan="magnify" viewBox="0 0 810 809.999993" height="1080" preserveAspectRatio="xMidYMid meet" version="1.2"><defs><clipPath id="99806307e8"><path d="M 0.00390625 7.621094 L 810 7.621094 L 810 522.871094 L 0.00390625 522.871094 Z M 0.00390625 7.621094 "/></clipPath><clipPath id="615928fcac"><path d="M 169.941406 7.621094 L 640.058594 7.621094 L 809.996094 522.601562 L 0.00390625 522.601562 Z M 169.941406 7.621094 "/></clipPath><clipPath id="f069fddbc9"><path d="M 243.058594 518.476562 L 567 518.476562 L 567 810 L 243.058594 810 Z M 243.058594 518.476562 "/></clipPath><clipPath id="83cdb2d660"><path d="M 367.515625 518.476562 L 442.480469 518.476562 L 566.9375 809.992188 L 243.058594 809.992188 Z M 367.515625 518.476562 "/></clipPath></defs><g id="6db20e43dc"><rect x="0" width="810" y="0" height="809.999993" style="fill:#ffffff;fill-opacity:1;stroke:none;"/><rect x="0" width="810" y="0" height="809.999993" style="fill:#ffffff;fill-opacity:1;stroke:none;"/><g clip-rule="nonzero" clip-path="url(#99806307e8)"><g clip-rule="nonzero" clip-path="url(#615928fcac)"><path style="fill:none;stroke-width:22;stroke-linecap:butt;stroke-linejoin:miter;stroke:#000000;stroke-opacity:1;stroke-miterlimit:4;" d="M 226.583047 0.00174482 L 853.405955 0.00174482 L 1079.989285 686.64236 L -0.000283386 686.64236 Z M 226.583047 0.00174482 " transform="matrix(0.75,0,0,0.75,0.00411879,7.619785)"/></g></g><path style="fill:none;stroke-width:18;stroke-linecap:butt;stroke-linejoin:miter;stroke:#000000;stroke-opacity:1;stroke-miterlimit:4;" d="M -0.000405776 9.002551 L 680.446429 8.999458 " transform="matrix(-0.116867,0.740351,-0.740351,-0.116867,342.747027,12.497715)"/><path style="fill:none;stroke-width:18;stroke-linecap:butt;stroke-linejoin:miter;stroke:#000000;stroke-opacity:1;stroke-miterlimit:4;" d="M -0.00182796 9.002123 L 678.924524 8.999662 " transform="matrix(-0.118515,-0.740577,0.740577,-0.118515,545.0088,516.60069)"/><path style="fill:none;stroke-width:18;stroke-linecap:butt;stroke-linejoin:miter;stroke:#000000;stroke-opacity:1;stroke-miterlimit:4;" d="M -0.00185117 9.001084 L 726.050256 9.001084 " transform="matrix(0.749952,0,0,0.749952,131.485763,127.67931)"/><path style="fill:none;stroke-width:18;stroke-linecap:butt;stroke-linejoin:miter;stroke:#000000;stroke-opacity:1;stroke-miterlimit:4;" d="M -0.000268034 8.999941 L 881.045292 9.002039 " transform="matrix(0.749961,0.00426782,-0.00426782,0.749961,74.397986,302.480863)"/><g clip-rule="nonzero" clip-path="url(#f069fddbc9)"><g clip-rule="nonzero" clip-path="url(#83cdb2d660)"><path style="fill:none;stroke-width:22;stroke-linecap:butt;stroke-linejoin:miter;stroke:#000000;stroke-opacity:1;stroke-miterlimit:4;" d="M 165.944505 -0.00165255 L 265.897635 -0.00165255 L 431.840351 388.685867 L 0.00178784 388.685867 Z M 165.944505 -0.00165255 " transform="matrix(0.75,0,0,0.75,243.057253,518.477802)"/></g></g></g></svg>