<svg xmlns="http://www.w3.org/2000/svg" xmlns:xlink="http://www.w3.org/1999/xlink" width="669" zoomAndPan="magnify" viewBox="0 0 501.75 809.999993" height="1080" preserveAspectRatio="xMidYMid meet" version="1.2"><defs><clipPath id="08a796c423"><path d="M 0 0.203125 L 501.5 0.203125 L 501.5 809.796875 L 0 809.796875 Z M 0 0.203125 "/></clipPath><clipPath id="5bcc0cf8e5"><path d="M 0 0.480469 L 501.5 0.480469 L 501.5 809.328125 L 0 809.328125 Z M 0 0.480469 "/></clipPath></defs><g id="f78457a267"><g clip-rule="nonzero" clip-path="url(#08a796c423)"><path style=" stroke:none;fill-rule:nonzero;fill:#ffffff;fill-opacity:1;" d="M 0 0.203125 L 501.5 0.203125 L 501.5 809.796875 L 0 809.796875 Z M 0 0.203125 "/><path style=" stroke:none;fill-rule:nonzero;fill:#ffffff;fill-opacity:1;" d="M 0 0.203125 L 501.5 0.203125 L 501.5 809.796875 L 0 809.796875 Z M 0 0.203125 "/></g><g clip-rule="nonzero" clip-path="url(#5bcc0cf8e5)"><path style=" stroke:none;fill-rule:nonzero;fill:#000000;fill-opacity:1;" d="M 488.394531 278.25 C 495.628906 278.25 501.5 272.382812 501.5 265.144531 L 501.5 209.242188 C 501.5 208.757812 501.464844 208.277344 501.417969 207.808594 C 501.410156 207.742188 501.394531 207.675781 501.386719 207.613281 C 501.316406 207.066406 501.210938 206.53125 501.078125 206.007812 C 501.050781 205.902344 501.027344 205.796875 501 205.691406 C 500.835938 205.109375 500.636719 204.546875 500.402344 204 C 500.378906 203.949219 500.351562 203.902344 500.328125 203.851562 C 500.097656 203.339844 499.835938 202.855469 499.542969 202.382812 C 499.492188 202.296875 499.441406 202.203125 499.382812 202.117188 C 499.0625 201.625 498.710938 201.15625 498.332031 200.714844 C 498.253906 200.625 498.167969 200.539062 498.089844 200.449219 C 497.695312 200.015625 497.28125 199.605469 496.835938 199.230469 C 496.816406 199.214844 496.800781 199.195312 496.78125 199.179688 L 496.738281 199.140625 C 496.730469 199.136719 496.726562 199.132812 496.722656 199.128906 L 330.210938 60.402344 L 289.191406 5.722656 C 286.714844 2.421875 282.832031 0.480469 278.707031 0.480469 L 222.792969 0.480469 C 218.667969 0.480469 214.785156 2.421875 212.308594 5.722656 L 171.289062 60.398438 L 4.777344 199.125 C 4.773438 199.128906 4.769531 199.136719 4.765625 199.136719 L 4.71875 199.175781 C 4.699219 199.191406 4.6875 199.210938 4.667969 199.226562 C 4.21875 199.605469 3.804688 200.015625 3.414062 200.449219 C 3.332031 200.539062 3.25 200.625 3.171875 200.714844 C 2.789062 201.15625 2.4375 201.625 2.121094 202.113281 C 2.0625 202.203125 2.011719 202.292969 1.957031 202.382812 C 1.667969 202.851562 1.402344 203.339844 1.175781 203.847656 C 1.152344 203.898438 1.125 203.949219 1.101562 204 C 0.863281 204.546875 0.667969 205.109375 0.503906 205.6875 C 0.472656 205.792969 0.449219 205.898438 0.421875 206.003906 C 0.289062 206.53125 0.183594 207.0625 0.117188 207.609375 C 0.105469 207.675781 0.09375 207.742188 0.0859375 207.804688 C 0.0351562 208.277344 0 208.757812 0 209.242188 L 0 265.144531 C 0 272.382812 5.871094 278.25 13.105469 278.25 C 20.34375 278.25 26.210938 272.382812 26.210938 265.144531 L 26.210938 222.34375 L 167.75 222.34375 L 167.75 342.863281 L 4.777344 478.640625 C 4.773438 478.644531 4.765625 478.648438 4.761719 478.652344 L 4.71875 478.691406 C 4.699219 478.707031 4.683594 478.726562 4.664062 478.742188 C 4.21875 479.121094 3.804688 479.53125 3.410156 479.964844 C 3.332031 480.050781 3.25 480.136719 3.167969 480.230469 C 2.789062 480.671875 2.4375 481.140625 2.117188 481.628906 C 2.058594 481.71875 2.007812 481.808594 1.957031 481.898438 C 1.664062 482.367188 1.402344 482.855469 1.171875 483.363281 C 1.148438 483.414062 1.121094 483.460938 1.097656 483.515625 C 0.863281 484.058594 0.664062 484.625 0.5 485.203125 C 0.472656 485.308594 0.449219 485.414062 0.421875 485.519531 C 0.289062 486.042969 0.183594 486.578125 0.113281 487.125 C 0.105469 487.191406 0.0898438 487.253906 0.0820312 487.320312 C 0.0351562 487.792969 0 488.273438 0 488.757812 L 0 544.660156 C 0 551.898438 5.871094 557.761719 13.105469 557.761719 C 20.34375 557.761719 26.210938 551.898438 26.210938 544.660156 L 26.210938 501.859375 L 162.144531 501.859375 L 59.84375 783.121094 L 41.066406 783.121094 C 33.828125 783.121094 27.960938 788.988281 27.960938 796.222656 C 27.960938 803.460938 33.828125 809.328125 41.066406 809.328125 L 110.960938 809.328125 C 118.199219 809.328125 124.066406 803.460938 124.066406 796.222656 C 124.066406 788.988281 118.199219 783.121094 110.960938 783.121094 L 96.679688 783.121094 L 250.75 594.855469 L 404.820312 783.121094 L 404.519531 783.121094 C 397.28125 783.121094 391.414062 788.988281 391.414062 796.222656 C 391.414062 803.460938 397.28125 809.328125 404.519531 809.328125 L 474.414062 809.328125 C 481.652344 809.328125 487.519531 803.460938 487.519531 796.222656 C 487.519531 788.988281 481.652344 783.121094 474.414062 783.121094 L 441.65625 783.121094 L 339.355469 501.859375 L 475.289062 501.859375 L 475.289062 544.660156 C 475.289062 551.898438 481.15625 557.761719 488.394531 557.761719 C 495.628906 557.761719 501.5 551.898438 501.5 544.660156 L 501.5 488.757812 C 501.5 488.273438 501.464844 487.792969 501.417969 487.320312 C 501.410156 487.257812 501.394531 487.191406 501.386719 487.128906 C 501.316406 486.582031 501.210938 486.046875 501.078125 485.523438 C 501.050781 485.414062 501.027344 485.3125 501 485.207031 C 500.835938 484.625 500.636719 484.058594 500.402344 483.515625 C 500.378906 483.464844 500.351562 483.414062 500.328125 483.363281 C 500.097656 482.855469 499.835938 482.371094 499.542969 481.898438 C 499.492188 481.808594 499.441406 481.71875 499.382812 481.632812 C 499.0625 481.140625 498.710938 480.671875 498.332031 480.230469 C 498.253906 480.140625 498.167969 480.054688 498.089844 479.964844 C 497.695312 479.53125 497.28125 479.121094 496.835938 478.746094 C 496.816406 478.726562 496.800781 478.710938 496.78125 478.695312 L 496.738281 478.65625 C 496.730469 478.652344 496.726562 478.644531 496.722656 478.644531 L 333.75 342.863281 L 333.75 222.34375 L 475.289062 222.34375 L 475.289062 265.144531 C 475.289062 272.382812 481.15625 278.25 488.394531 278.25 Z M 232.214844 139.363281 L 193.960938 177.609375 L 193.960938 101.117188 Z M 212.496094 82.585938 L 289.003906 82.585938 L 250.75 120.832031 Z M 212.496094 196.140625 L 250.75 157.894531 L 289.003906 196.140625 Z M 289.003906 222.34375 L 250.75 260.589844 L 212.496094 222.34375 Z M 232.214844 279.121094 L 193.960938 317.367188 L 193.960938 240.875 Z M 212.496094 335.898438 L 250.75 297.652344 L 289.003906 335.898438 Z M 289.003906 362.101562 L 250.75 400.347656 L 212.496094 362.101562 Z M 232.214844 418.878906 L 193.960938 457.125 L 193.960938 380.632812 Z M 250.75 437.410156 L 289.003906 475.65625 L 212.496094 475.65625 Z M 292.988281 501.859375 L 250.75 553.472656 L 208.511719 501.859375 Z M 269.285156 418.878906 L 307.539062 380.632812 L 307.539062 457.125 Z M 269.285156 279.121094 L 307.539062 240.875 L 307.539062 317.367188 Z M 269.285156 139.363281 L 307.539062 101.117188 L 307.539062 177.609375 Z M 229.34375 26.683594 L 272.15625 26.683594 L 294.433594 56.382812 L 207.066406 56.382812 Z M 167.75 97.460938 L 167.75 196.140625 L 49.304688 196.140625 Z M 167.75 376.972656 L 167.75 475.65625 L 49.304688 475.65625 Z M 107.667969 728.308594 L 185.296875 514.878906 L 233.816406 574.164062 Z M 267.683594 574.164062 L 316.199219 514.878906 L 393.828125 728.308594 Z M 333.75 475.65625 L 333.75 376.972656 L 452.195312 475.65625 Z M 333.75 196.140625 L 333.75 97.460938 L 452.195312 196.140625 Z M 333.75 196.140625 "/></g></g></svg>