<svg xmlns="http://www.w3.org/2000/svg" xmlns:xlink="http://www.w3.org/1999/xlink" width="1080" zoomAndPan="magnify" viewBox="0 0 810 809.999993" height="1080" preserveAspectRatio="xMidYMid meet" version="1.2"><defs><clipPath id="15f6b261db"><path d="M 0.00390625 7.621094 L 810 7.621094 L 810 522.871094 L 0.00390625 522.871094 Z M 0.00390625 7.621094 "/></clipPath><clipPath id="2ef59ea6f9"><path d="M 169.941406 7.621094 L 640.058594 7.621094 L 809.996094 522.601562 L 0.00390625 522.601562 Z M 169.941406 7.621094 "/></clipPath><clipPath id="a2d2f42cf9"><path d="M 243.058594 518.476562 L 567 518.476562 L 567 810 L 243.058594 810 Z M 243.058594 518.476562 "/></clipPath><clipPath id="d9b57e377c"><path d="M 367.515625 518.476562 L 442.480469 518.476562 L 566.9375 809.992188 L 243.058594 809.992188 Z M 367.515625 518.476562 "/></clipPath></defs><g id="17eff1b7df"><rect x="0" width="810" y="0" height="809.999993" style="fill:#ffffff;fill-opacity:1;stroke:none;"/><rect x="0" width="810" y="0" height="809.999993" style="fill:#ffffff;fill-opacity:1;stroke:none;"/><g clip-rule="nonzero" clip-path="url(#15f6b261db)"><g clip-rule="nonzero" clip-path="url(#2ef59ea6f9)"><path style="fill:none;stroke-width:22;stroke-linecap:butt;stroke-linejoin:miter;stroke:#000000;stroke-opacity:1;stroke-miterlimit:4;" d="M 226.583047 0.00171282 L 853.405955 0.00171282 L 1079.989285 686.642328 L -0.000283386 686.642328 Z M 226.583047 0.00171282 " transform="matrix(0.75,0,0,0.75,0.00411879,7.619809)"/></g></g><path style="fill:none;stroke-width:18;stroke-linecap:butt;stroke-linejoin:miter;stroke:#000000;stroke-opacity:1;stroke-miterlimit:4;" d="M -0.00041305 9.002552 L 680.446422 8.999459 " transform="matrix(-0.116867,0.740351,-0.740351,-0.116867,342.747027,12.49772)"/><path style="fill:none;stroke-width:18;stroke-linecap:butt;stroke-linejoin:miter;stroke:#000000;stroke-opacity:1;stroke-miterlimit:4;" d="M -0.00173316 9.002139 L 678.924619 8.999677 " transform="matrix(-0.118515,-0.740577,0.740577,-0.118515,545.0088,516.600762)"/><path style="fill:none;stroke-width:18;stroke-linecap:butt;stroke-linejoin:miter;stroke:#000000;stroke-opacity:1;stroke-miterlimit:4;" d="M -0.00185117 9.001203 L 726.050256 9.001203 " transform="matrix(0.749952,0,0,0.749952,131.485763,127.679222)"/><path style="fill:none;stroke-width:18;stroke-linecap:butt;stroke-linejoin:miter;stroke:#000000;stroke-opacity:1;stroke-miterlimit:4;" d="M -0.000268034 8.999941 L 881.045292 9.002039 " transform="matrix(0.749961,0.00426782,-0.00426782,0.749961,74.397986,302.480863)"/><g clip-rule="nonzero" clip-path="url(#a2d2f42cf9)"><g clip-rule="nonzero" clip-path="url(#d9b57e377c)"><path style="fill:none;stroke-width:22;stroke-linecap:butt;stroke-linejoin:miter;stroke:#000000;stroke-opacity:1;stroke-miterlimit:4;" d="M 165.944505 -0.00165255 L 265.897635 -0.00165255 L 431.840351 388.685867 L 0.00178784 388.685867 Z M 165.944505 -0.00165255 " transform="matrix(0.75,0,0,0.75,243.057253,518.477802)"/></g></g></g></svg>